<svg xmlns:dc="http://purl.org/dc/elements/1.1/" xmlns:cc="http://creativecommons.org/ns#" xmlns:rdf="http://www.w3.org/1999/02/22-rdf-syntax-ns#" xmlns:svg="http://www.w3.org/2000/svg" xmlns="http://www.w3.org/2000/svg" viewBox="0 0 280 280" fill="none"><metadata><rdf:RDF><cc:Work><dc:format>image/svg+xml</dc:format><dc:type rdf:resource="http://purl.org/dc/dcmitype/StillImage"/><dc:title>Avataaars</dc:title><dc:creator><cc:Agent><dc:title>Pablo Stanley</dc:title></cc:Agent></dc:creator><dc:source>https://avataaars.com/</dc:source><cc:license rdf:resource="https://avataaars.com/"/><dc:contributor><cc:Agent><dc:title>Florian Körner</dc:title></cc:Agent></dc:contributor></cc:Work></rdf:RDF></metadata><mask id="avatarsRadiusMask"><rect width="280" height="280" rx="0" ry="0" x="0" y="0" fill="#fff"/></mask><g mask="url(#avatarsRadiusMask)"><g transform="translate(40, 36)"><path d="M100 0C69.072 0 44 25.072 44 56v6.166c-5.675.952-10 5.888-10 11.834v14c0 6.052 4.48 11.058 10.305 11.881 2.067 19.806 14.458 36.541 31.695 44.73V163h-4c-39.764 0-72 32.236-72 72v9h200v-9c0-39.764-32.236-72-72-72h-4v-18.389c17.237-8.189 29.628-24.924 31.695-44.73C161.52 99.058 166 94.052 166 88V74c0-5.946-4.325-10.882-10-11.834V56c0-30.928-25.072-56-56-56z" fill="#AE5D29"/><path d="M76 144.611v8A55.79 55.79 0 00100 158a55.789 55.789 0 0024-5.389v-8A55.789 55.789 0 01100 150a55.79 55.79 0 01-24-5.389z" fill="#000" fill-opacity=".1"/></g><g transform="translate(8, 170)"><path d="M108 14.694C92.484 18.38 80.895 25.529 77.228 34.142 50.72 44.765 32 70.696 32 101v9h200v-9.001c0-30.303-18.721-56.234-45.228-66.858-3.667-8.613-15.256-15.761-30.772-19.447V32c0 13.255-10.745 24-24 24s-24-10.745-24-24V14.694z" fill="#FF5C5C"/><path d="M102 63.337a67.11 67.11 0 01-7-2.817V110h7V63.337zm60 0a67.039 67.039 0 007-2.817V98.5a3.5 3.5 0 11-7 0V63.337z" fill="#F4F4F4"/><path d="M187.62 34.488a71.788 71.788 0 0110.832 5.628C197.107 55.615 167.87 68 132 68c30.928 0 56-13.431 56-30 0-1.188-.129-2.36-.38-3.512zm-111.24 0A16.477 16.477 0 0076 38c0 16.569 25.072 30 56 30-35.87 0-65.107-12.385-66.452-27.884a71.783 71.783 0 0110.832-5.628z" fill="#000" fill-opacity=".16"/></g><g transform="translate(86, 134)"><path fill-rule="evenodd" clip-rule="evenodd" d="M40 15c0 7.732 6.268 14 14 14s14-6.268 14-14" fill="#000" fill-opacity=".7"/></g><g transform="translate(112, 122)"><path fill-rule="evenodd" clip-rule="evenodd" d="M16 8c0 4.418 5.373 8 12 8s12-3.582 12-8" fill="#000" fill-opacity=".16"/></g><g transform="translate(84, 90)"><path fill-rule="evenodd" clip-rule="evenodd" d="M16.16 22.447C18.007 18.648 22.164 16 26.998 16c4.816 0 8.961 2.63 10.817 6.407.552 1.122-.233 2.04-1.024 1.36-2.451-2.107-5.932-3.423-9.793-3.423-3.74 0-7.124 1.235-9.56 3.228-.891.728-1.818-.014-1.278-1.125zm58 0C76.007 18.648 80.164 16 84.998 16c4.816 0 8.961 2.63 10.817 6.407.552 1.122-.233 2.04-1.024 1.36-2.451-2.107-5.932-3.423-9.793-3.423-3.74 0-7.124 1.235-9.56 3.228-.891.728-1.818-.014-1.278-1.125z" fill="#000" fill-opacity=".6"/></g><g transform="translate(84, 82)"><path fill-rule="evenodd" clip-rule="evenodd" d="M31.234 20.422l-.911.402c-5.242 2.081-13.188 1.209-18.046-1.123-.567-.273-.18-1.153.402-1.108 14.919 1.151 24.963-8.146 28.375-14.44.101-.187.407-.208.482-.034 2.308 5.319-4.45 13.985-10.302 16.303zm49.532 0l.911.402c5.242 2.081 13.188 1.209 18.046-1.123.567-.273.18-1.153-.402-1.108-14.919 1.151-24.963-8.146-28.375-14.44-.101-.187-.407-.208-.483-.034-2.307 5.319 4.45 13.985 10.303 16.303z" fill="#000" fill-opacity=".6"/></g><g transform="translate(7, 0)"><path d="M188.318 138.763C227.895 129.257 255 109.871 255 87.5c0-23.505-29.924-43.716-72.796-52.632l-.314-1.432C177.867 15.08 161.609 2 142.818 2h-18.636C105.391 2 89.133 15.08 85.11 33.436l-.267 1.217C41.412 43.456 11 63.804 11 87.5c0 22.371 27.105 41.757 66.682 51.263a56.124 56.124 0 01-.473-3.896C71.43 134.002 67 129.019 67 123v-13c0-5.946 4.325-10.882 10-11.834V92a55.808 55.808 0 014.71-22.514c8.603-15.683 92.725-16.486 102.652.163A55.821 55.821 0 01189 92v6.166c5.675.952 10 5.888 10 11.834v13c0 6.019-4.431 11.002-10.209 11.867a56.063 56.063 0 01-.473 3.896z" fill="#5199E4"/><path d="M189 92.743c3.847-3.255 6-6.897 6-10.743 0-6.079-5.38-11.65-14.325-15.984 1.646 1.102 2.9 2.313 3.687 3.633A55.821 55.821 0 01189 92v.743zm-31.737-33.756C149.811 57.707 141.611 57 133 57c-8.981 0-17.516.77-25.221 2.155 15.165-2.205 34.115-2.303 49.484-.168zm-72.577 7.344C76.124 70.618 71 76.068 71 82c0 3.846 2.153 7.488 6 10.743V92a55.808 55.808 0 014.71-22.514c.62-1.13 1.63-2.181 2.976-3.155z" fill="#000" fill-opacity=".5"/></g></g></svg>